M48
;DRILL file {KiCad (5.0.0-rc2-dev-720-g9704891c8)} date Mon Jun 11 16:44:08 2018
;FORMAT={-:-/ absolute / inch / decimal}
FMAT,2
INCH,TZ
T1C0.0157
T2C0.0197
T3C0.0276
T4C0.0300
T5C0.0310
T6C0.0315
T7C0.0354
T8C0.0390
T9C0.0394
T10C0.0413
T11C0.0433
T12C0.0472
T13C0.0591
T14C0.0748
T15C0.1378
T16C0.0591
T17C0.0929
T18C0.1102
%
G90
G05
M72
T1
X0.9449Y-5.9449
X1.0827Y-5.2165
X1.1024Y-3.8189
X1.1024Y-4.2913
X1.1465Y-4.9559
X1.2016Y-2.0866
X1.2992Y-5.1181
X1.4173Y-1.3157
X1.4961Y-5.8661
X1.5992Y-4.9803
X1.6016Y-2.2173
X1.6142Y-3.937
X1.6142Y-5.4528
X1.811Y-3.9764
X1.8898Y-5.8661
X1.9291Y-4.0157
X1.9685Y-6.3386
X2.0079Y-5.5118
X2.0091Y-1.9685
X2.0472Y-6.6535
X2.0866Y-4.685
X2.0866Y-6.1024
X2.126Y-3.4646
X2.2047Y-5.6693
X2.3016Y-4.5457
X2.3228Y-4.0945
X2.4016Y-5.5906
X2.4835Y-7.126
X2.5835Y-6.2413
X2.5984Y-5.9449
X2.5984Y-6.7717
X2.7559Y-5.0984
X2.8346Y-6.2992
X2.9921Y-6.6535
X3.2283Y-5.7874
X3.3071Y-6.6535
X3.3071Y-6.8504
X3.7264Y-6.1811
X3.8583Y-5.4724
X4.2126Y-3.5827
X4.3209Y-4.785
T2
X2.2736Y-3.0315
X2.3327Y-3.0315
T3
X0.9449Y-4.7244
X1.0449Y-4.6244
X1.0449Y-4.8244
T4
X4.5369Y-5.8268
X4.5969Y-5.8268
X4.1638Y-3.1496
X4.2638Y-3.1496
X4.3638Y-3.1496
X4.7539Y-3.1646
X4.7539Y-3.2646
X4.7539Y-3.4646
X4.7539Y-3.5646
X4.7539Y-3.6646
X2.6996Y-3.5039
X2.6996Y-3.7992
X2.7996Y-3.5039
X2.7996Y-3.7992
X2.8996Y-3.5039
X2.8996Y-3.7992
X2.9996Y-3.5039
X2.9996Y-3.7992
X3.0996Y-3.5039
X3.0996Y-3.7992
X3.1996Y-3.5039
X3.1996Y-3.7992
X3.2996Y-3.5039
X3.2996Y-3.7992
X3.3996Y-3.5039
X3.3996Y-3.7992
X3.4996Y-3.5039
X3.4996Y-3.7992
X3.5996Y-3.5039
X3.5996Y-3.7992
T5
X4.2126Y-4.1882
X4.2126Y-4.4882
X4.3126Y-4.1882
X4.3126Y-4.4882
X4.4126Y-4.1882
X4.4126Y-4.4882
X4.5126Y-4.1882
X4.5126Y-4.4882
X4.6126Y-4.1882
X4.6126Y-4.4882
X4.7126Y-4.1882
X4.7126Y-4.4882
X4.8126Y-4.1882
X4.8126Y-4.4882
X4.9126Y-4.1882
X4.9126Y-4.4882
T6
X2.7165Y-5.8024
X2.7165Y-6.1024
X2.8165Y-5.8024
X2.8165Y-6.1024
X2.9165Y-5.8024
X2.9165Y-6.1024
X3.0165Y-5.8024
X3.0165Y-6.1024
X3.3071Y-5.8024
X3.3071Y-6.1024
X3.4071Y-5.8024
X3.4071Y-6.1024
X3.5071Y-5.8024
X3.5071Y-6.1024
X3.6071Y-5.8024
X3.6071Y-6.1024
X1.2992Y-4.8425
X1.3992Y-4.8425
X1.4992Y-4.8425
X1.5992Y-4.8425
X1.6992Y-4.8425
X1.7992Y-4.8425
X1.8992Y-4.8425
X1.9992Y-4.8425
X2.2016Y-5.1969
X2.3016Y-5.1969
X2.4016Y-5.1969
X2.5016Y-5.1969
X2.6016Y-5.1969
X2.7016Y-5.1969
X2.6996Y-4.8425
X2.7996Y-4.8425
X2.8996Y-4.8425
X2.9996Y-4.8425
X3.0996Y-4.8425
X3.1996Y-4.8425
X3.2996Y-4.8425
X3.3996Y-4.8425
X3.4996Y-4.8425
X3.5996Y-4.8425
X5.1575Y-2.6921
X5.1575Y-2.9921
X1.2016Y-3.4252
X1.2016Y-3.7252
X1.3016Y-3.4252
X1.3016Y-3.7252
X1.4016Y-3.4252
X1.4016Y-3.7252
X1.5016Y-3.4252
X1.5016Y-3.7252
X1.6016Y-3.4252
X1.6016Y-3.7252
X1.7016Y-3.4252
X1.7016Y-3.7252
X4.0126Y-5.5512
X4.1126Y-5.5512
X4.2126Y-5.5512
X2.4803Y-3.4252
X2.4803Y-3.5252
X2.4803Y-3.6252
X2.4803Y-3.7252
X2.4803Y-3.8252
X2.4803Y-3.9252
X1.0992Y-5.9449
X1.1992Y-5.9449
X1.2992Y-5.9449
X1.3992Y-5.9449
X1.4992Y-5.9449
X1.5992Y-5.9449
X1.6992Y-5.9449
X1.7992Y-5.9449
X1.8992Y-5.9449
X1.9992Y-5.9449
X1.1016Y-4.2126
X1.1016Y-4.5126
X1.2016Y-4.2126
X1.2016Y-4.5126
X1.3016Y-4.2126
X1.3016Y-4.5126
X1.4016Y-4.2126
X1.4016Y-4.5126
X1.5016Y-4.2126
X1.5016Y-4.5126
X1.6016Y-4.2126
X1.6016Y-4.5126
X1.7016Y-4.2126
X1.7016Y-4.5126
X3.4252Y-6.3929
X3.4252Y-6.6929
X3.5252Y-6.3929
X3.5252Y-6.6929
X3.6252Y-6.3929
X3.6252Y-6.6929
X3.7252Y-6.3929
X3.7252Y-6.6929
X3.8252Y-6.3929
X3.8252Y-6.6929
X3.9252Y-6.3929
X3.9252Y-6.6929
X4.0252Y-6.3929
X4.0252Y-6.6929
X4.1252Y-6.3929
X4.1252Y-6.6929
X2.7165Y-4.0551
X2.7165Y-4.1551
X2.7165Y-4.2551
X2.7165Y-4.3551
X2.7165Y-4.4551
X2.7165Y-4.5551
X2.7165Y-4.6551
X3.0165Y-4.0551
X3.0165Y-4.1551
X3.0165Y-4.2551
X3.0165Y-4.3551
X3.0165Y-4.4551
X3.0165Y-4.5551
X3.0165Y-4.6551
X3.2827Y-4.0551
X3.2827Y-4.1551
X3.2827Y-4.2551
X3.2827Y-4.3551
X3.2827Y-4.4551
X3.2827Y-4.5551
X3.2827Y-4.6551
X3.5827Y-4.0551
X3.5827Y-4.1551
X3.5827Y-4.2551
X3.5827Y-4.3551
X3.5827Y-4.4551
X3.5827Y-4.5551
X3.5827Y-4.6551
X3.8189Y-3.9425
X3.8189Y-4.0425
X3.8189Y-4.1425
X3.8189Y-4.2425
X3.8189Y-4.3425
X3.8189Y-4.4425
X3.8189Y-4.5425
X3.8189Y-4.6425
X3.8189Y-4.7425
X3.8189Y-4.8425
X3.0496Y-7.0079
X3.1496Y-7.0079
X3.2496Y-7.0079
X5.1575Y-5.1724
X5.1575Y-5.4724
X4.6213Y-4.685
X4.6213Y-4.785
X4.6213Y-4.885
X4.6213Y-4.985
X4.6213Y-5.085
X4.6213Y-5.185
X4.6213Y-5.285
X4.9213Y-4.685
X4.9213Y-4.785
X4.9213Y-4.885
X4.9213Y-4.985
X4.9213Y-5.085
X4.9213Y-5.185
X4.9213Y-5.285
X0.9449Y-4.9606
X0.9449Y-5.0606
X0.9449Y-5.1606
X0.9449Y-5.2606
X0.9449Y-5.3606
X0.9449Y-5.4606
X2.2835Y-6.3929
X2.2835Y-6.6929
X2.3835Y-6.3929
X2.3835Y-6.6929
X2.4835Y-6.3929
X2.4835Y-6.6929
X2.5835Y-6.3929
X2.5835Y-6.6929
X2.6835Y-6.3929
X2.6835Y-6.6929
X2.7835Y-6.3929
X2.7835Y-6.6929
X2.8835Y-6.3929
X2.8835Y-6.6929
X4.1488Y-4.685
X4.1488Y-4.785
X4.1488Y-4.885
X4.1488Y-4.985
X4.1488Y-5.085
X4.1488Y-5.185
X4.1488Y-5.285
X4.4488Y-4.685
X4.4488Y-4.785
X4.4488Y-4.885
X4.4488Y-4.985
X4.4488Y-5.085
X4.4488Y-5.185
X4.4488Y-5.285
X3.8189Y-3.4992
X3.8189Y-3.7992
X3.9189Y-3.4992
X3.9189Y-3.7992
X4.0189Y-3.4992
X4.0189Y-3.7992
X4.1189Y-3.4992
X4.1189Y-3.7992
X2.7996Y-3.3465
X2.8996Y-3.3465
X2.9996Y-3.3465
X3.0996Y-3.3465
X3.1996Y-3.3465
X3.2996Y-3.3465
X3.3996Y-3.3465
X3.4996Y-3.3465
X3.5996Y-3.3465
X3.6996Y-3.3465
X1.3929Y-5.1087
X1.3929Y-5.2087
X1.3929Y-5.3087
X1.3929Y-5.4087
X1.3929Y-5.5087
X1.3929Y-5.6087
X1.3929Y-5.7087
X1.6929Y-5.1087
X1.6929Y-5.2087
X1.6929Y-5.3087
X1.6929Y-5.4087
X1.6929Y-5.5087
X1.6929Y-5.6087
X1.6929Y-5.7087
T7
X2.2835Y-5.8268
X2.2835Y-5.9268
X2.2835Y-6.0268
X4.435Y-5.5512
X4.535Y-5.5512
X4.635Y-5.5512
X2.3622Y-4.2323
X2.3622Y-4.3307
X2.3622Y-4.4291
T8
X1.1016Y-2.4409
X1.1016Y-2.7409
X1.2016Y-2.4409
X1.2016Y-2.7409
X1.3016Y-2.4409
X1.3016Y-2.7409
X1.4016Y-2.4409
X1.4016Y-2.7409
X1.5016Y-2.4409
X1.5016Y-2.7409
X1.6016Y-2.4409
X1.6016Y-2.7409
X1.7016Y-2.4409
X1.7016Y-2.7409
X1.8016Y-2.4409
X1.8016Y-2.7409
X1.9016Y-2.4409
X1.9016Y-2.7409
X2.0016Y-2.4409
X2.0016Y-2.7409
X2.1016Y-2.4409
X2.1016Y-2.7409
X2.2016Y-2.4409
X2.2016Y-2.7409
X2.3016Y-2.4409
X2.3016Y-2.7409
X2.4016Y-2.4409
X2.4016Y-2.7409
T9
X5.1575Y-4.685
X5.1575Y-4.7835
X5.1575Y-4.8819
X5.1575Y-4.9803
X0.9449Y-2.5409
X0.9449Y-2.6409
X0.9449Y-2.7409
X0.9449Y-2.8409
X0.9646Y-1.1157
X0.9646Y-1.2157
X0.9646Y-1.3157
X0.9646Y-1.4157
X0.9646Y-1.5157
X0.9646Y-1.6157
X0.9646Y-1.7157
X0.9646Y-1.8157
X1.0646Y-1.1157
X1.0646Y-1.2157
X1.0646Y-1.3157
X1.0646Y-1.4157
X1.0646Y-1.5157
X1.0646Y-1.6157
X1.0646Y-1.7157
X1.0646Y-1.8157
X3.2976Y-3.1496
X3.8976Y-3.1496
X4.2638Y-2.9921
X4.7638Y-2.9921
T10
X5.1575Y-4.2913
X5.1575Y-4.3898
T11
X1.0244Y-3.0118
X1.0244Y-3.2677
X1.2016Y-3.0118
X1.2016Y-3.2677
T12
X2.9496Y-5.0787
X3.0496Y-5.2787
X3.1496Y-5.0787
X3.2496Y-5.2787
X3.3496Y-5.0787
T13
X5.1181Y-3.1496
X5.1181Y-4.0354
T14
X5.2362Y-6.1575
X5.2362Y-6.6772
X1.063Y-6.1575
X1.063Y-6.6772
X5.2362Y-6.8661
X5.2362Y-7.3858
X1.063Y-6.8661
X1.063Y-7.3858
T15
X5.2756Y-2.0866
X1.0236Y-2.0866
X5.2756Y-0.9449
X1.0236Y-0.9449
T16
X1.5079Y-1.0965
X2.4606Y-1.0965
T17
X2.7965Y-1.9224
X4.9461Y-1.9224
T18
X5.1181Y-3.5925
T0
M30
