%TF.GenerationSoftware,KiCad,Pcbnew,(5.0.0-rc2-dev-720-g9704891c8)*%
%TF.CreationDate,2018-06-11T16:43:15-04:00*%
%TF.ProjectId,Main,4D61696E2E6B696361645F7063620000,rev?*%
%TF.SameCoordinates,Original*%
%TF.FileFunction,Soldermask,Bot*%
%TF.FilePolarity,Negative*%
%FSLAX46Y46*%
G04 Gerber Fmt 4.6, Leading zero omitted, Abs format (unit mm)*
G04 Created by KiCad (PCBNEW (5.0.0-rc2-dev-720-g9704891c8)) date Mon Jun 11 16:43:15 2018*
%MOMM*%
%LPD*%
G01*
G04 APERTURE LIST*
%ADD10R,2.000000X2.000000*%
%ADD11O,2.000000X2.000000*%
%ADD12C,1.840000*%
%ADD13R,4.400000X4.400000*%
%ADD14C,3.400000*%
%ADD15C,2.150000*%
%ADD16R,2.150000X2.150000*%
%ADD17O,2.400000X2.400000*%
%ADD18C,2.400000*%
%ADD19C,3.200000*%
%ADD20C,1.900000*%
%ADD21C,1.660000*%
%ADD22C,1.400000*%
%ADD23C,2.760000*%
%ADD24C,1.670000*%
%ADD25C,1.924000*%
%ADD26R,1.898600X1.898600*%
%ADD27C,1.898600*%
%ADD28C,2.100000*%
%ADD29R,1.695400X1.695400*%
%ADD30C,1.695400*%
%ADD31C,2.700000*%
%ADD32O,2.100000X2.100000*%
%ADD33R,2.100000X2.100000*%
%ADD34C,2.020000*%
%ADD35R,2.020000X2.020000*%
%ADD36C,5.900000*%
G04 APERTURE END LIST*
D10*
X58000000Y-170000000D03*
D11*
X73240000Y-162380000D03*
X60540000Y-170000000D03*
X70700000Y-162380000D03*
X63080000Y-170000000D03*
X68160000Y-162380000D03*
X65620000Y-170000000D03*
X65620000Y-162380000D03*
X68160000Y-170000000D03*
X63080000Y-162380000D03*
X70700000Y-170000000D03*
X60540000Y-162380000D03*
X73240000Y-170000000D03*
X58000000Y-162380000D03*
D10*
X87000000Y-170000000D03*
D11*
X104780000Y-162380000D03*
X89540000Y-170000000D03*
X102240000Y-162380000D03*
X92080000Y-170000000D03*
X99700000Y-162380000D03*
X94620000Y-170000000D03*
X97160000Y-162380000D03*
X97160000Y-170000000D03*
X94620000Y-162380000D03*
X99700000Y-170000000D03*
X92080000Y-162380000D03*
X102240000Y-170000000D03*
X89540000Y-162380000D03*
X104780000Y-170000000D03*
X87000000Y-162380000D03*
D12*
X77460000Y-178000000D03*
X80000000Y-178000000D03*
X82540000Y-178000000D03*
D11*
X105380000Y-134240000D03*
X113000000Y-119000000D03*
X105380000Y-131700000D03*
X113000000Y-121540000D03*
X105380000Y-129160000D03*
X113000000Y-124080000D03*
X105380000Y-126620000D03*
X113000000Y-126620000D03*
X105380000Y-124080000D03*
X113000000Y-129160000D03*
X105380000Y-121540000D03*
X113000000Y-131700000D03*
X105380000Y-119000000D03*
D10*
X113000000Y-134240000D03*
D11*
X84000000Y-147380000D03*
X91620000Y-155000000D03*
X86540000Y-147380000D03*
X89080000Y-155000000D03*
X89080000Y-147380000D03*
X86540000Y-155000000D03*
X91620000Y-147380000D03*
D10*
X84000000Y-155000000D03*
D11*
X35380000Y-145000000D03*
X43000000Y-129760000D03*
X35380000Y-142460000D03*
X43000000Y-132300000D03*
X35380000Y-139920000D03*
X43000000Y-134840000D03*
X35380000Y-137380000D03*
X43000000Y-137380000D03*
X35380000Y-134840000D03*
X43000000Y-139920000D03*
X35380000Y-132300000D03*
X43000000Y-142460000D03*
X35380000Y-129760000D03*
D10*
X43000000Y-145000000D03*
D11*
X27980000Y-107000000D03*
X43220000Y-114620000D03*
X30520000Y-107000000D03*
X40680000Y-114620000D03*
X33060000Y-107000000D03*
X38140000Y-114620000D03*
X35600000Y-107000000D03*
X35600000Y-114620000D03*
X38140000Y-107000000D03*
X33060000Y-114620000D03*
X40680000Y-107000000D03*
X30520000Y-114620000D03*
X43220000Y-107000000D03*
D10*
X27980000Y-114620000D03*
D11*
X69000000Y-147380000D03*
X76620000Y-155000000D03*
X71540000Y-147380000D03*
X74080000Y-155000000D03*
X74080000Y-147380000D03*
X71540000Y-155000000D03*
X76620000Y-147380000D03*
D10*
X69000000Y-155000000D03*
D13*
X133000000Y-181000000D03*
D14*
X133000000Y-187600000D03*
X133000000Y-174400000D03*
D13*
X133000000Y-163000000D03*
D14*
X133000000Y-169600000D03*
X133000000Y-156400000D03*
D13*
X27000000Y-181000000D03*
D14*
X27000000Y-174400000D03*
X27000000Y-187600000D03*
D13*
X27000000Y-163000000D03*
D14*
X27000000Y-156400000D03*
X27000000Y-169600000D03*
D15*
X131000000Y-111500000D03*
D16*
X131000000Y-109000000D03*
D15*
X131000000Y-126500000D03*
X131000000Y-124000000D03*
X131000000Y-121500000D03*
D16*
X131000000Y-119000000D03*
D11*
X131000000Y-68380000D03*
D10*
X131000000Y-76000000D03*
D11*
X131000000Y-131380000D03*
D10*
X131000000Y-139000000D03*
D11*
X117380000Y-134240000D03*
X125000000Y-119000000D03*
X117380000Y-131700000D03*
X125000000Y-121540000D03*
X117380000Y-129160000D03*
X125000000Y-124080000D03*
X117380000Y-126620000D03*
X125000000Y-126620000D03*
X117380000Y-124080000D03*
X125000000Y-129160000D03*
X117380000Y-121540000D03*
X125000000Y-131700000D03*
X117380000Y-119000000D03*
D10*
X125000000Y-134240000D03*
D11*
X91000000Y-103000000D03*
X83380000Y-118240000D03*
X91000000Y-105540000D03*
X83380000Y-115700000D03*
X91000000Y-108080000D03*
X83380000Y-113160000D03*
X91000000Y-110620000D03*
X83380000Y-110620000D03*
X91000000Y-113160000D03*
X83380000Y-108080000D03*
X91000000Y-115700000D03*
X83380000Y-105540000D03*
X91000000Y-118240000D03*
D10*
X83380000Y-103000000D03*
D11*
X76620000Y-103000000D03*
X69000000Y-118240000D03*
X76620000Y-105540000D03*
X69000000Y-115700000D03*
X76620000Y-108080000D03*
X69000000Y-113160000D03*
X76620000Y-110620000D03*
X69000000Y-110620000D03*
X76620000Y-113160000D03*
X69000000Y-108080000D03*
X76620000Y-115700000D03*
X69000000Y-105540000D03*
X76620000Y-118240000D03*
D10*
X69000000Y-103000000D03*
D11*
X97000000Y-88880000D03*
X104620000Y-96500000D03*
X99540000Y-88880000D03*
X102080000Y-96500000D03*
X102080000Y-88880000D03*
X99540000Y-96500000D03*
X104620000Y-88880000D03*
D10*
X97000000Y-96500000D03*
D17*
X83760000Y-80000000D03*
D18*
X99000000Y-80000000D03*
D19*
X130000000Y-91250000D03*
D14*
X130000000Y-80000000D03*
X130000000Y-102500000D03*
D20*
X62500000Y-27850000D03*
X38300000Y-27850000D03*
D21*
X26540000Y-117460000D03*
X24000000Y-120000000D03*
X26540000Y-122540000D03*
D11*
X30520000Y-87000000D03*
X43220000Y-94620000D03*
X33060000Y-87000000D03*
X40680000Y-94620000D03*
X35600000Y-87000000D03*
X38140000Y-94620000D03*
X38140000Y-87000000D03*
X35600000Y-94620000D03*
X40680000Y-87000000D03*
X33060000Y-94620000D03*
X43220000Y-87000000D03*
D10*
X30520000Y-94620000D03*
D22*
X59250000Y-77000000D03*
X57750000Y-77000000D03*
D23*
X71030000Y-48830000D03*
D18*
X108300000Y-76000000D03*
X121000000Y-76000000D03*
D23*
X125630000Y-48830000D03*
D24*
X116762000Y-148000000D03*
X115238000Y-148000000D03*
D25*
X91430000Y-89000000D03*
X88890000Y-89000000D03*
X86350000Y-89000000D03*
X83810000Y-89000000D03*
X81270000Y-89000000D03*
X78730000Y-89000000D03*
X76190000Y-89000000D03*
X73650000Y-89000000D03*
X71110000Y-89000000D03*
X68570000Y-89000000D03*
X68570000Y-96500000D03*
X71110000Y-96500000D03*
X73650000Y-96500000D03*
X76190000Y-96500000D03*
X78730000Y-96500000D03*
X81270000Y-96500000D03*
X83810000Y-96500000D03*
X86350000Y-96500000D03*
X88890000Y-96500000D03*
X91430000Y-96500000D03*
D26*
X27980000Y-69620000D03*
D27*
X30520000Y-69620000D03*
X33060000Y-69620000D03*
X35600000Y-69620000D03*
X38140000Y-69620000D03*
X40680000Y-69620000D03*
X43220000Y-69620000D03*
X45760000Y-69620000D03*
X48300000Y-69620000D03*
X50840000Y-69620000D03*
X53380000Y-69620000D03*
X55920000Y-69620000D03*
X58460000Y-69620000D03*
X61000000Y-69620000D03*
X61000000Y-62000000D03*
X58460000Y-62000000D03*
X55920000Y-62000000D03*
X53380000Y-62000000D03*
X50840000Y-62000000D03*
X48300000Y-62000000D03*
X45760000Y-62000000D03*
X43220000Y-62000000D03*
X40680000Y-62000000D03*
X38140000Y-62000000D03*
X35600000Y-62000000D03*
X33060000Y-62000000D03*
X30520000Y-62000000D03*
X27980000Y-62000000D03*
D28*
X60000000Y-112500000D03*
X60000000Y-110000000D03*
X60000000Y-107500000D03*
D29*
X124780000Y-106380000D03*
D30*
X122240000Y-106380000D03*
X119700000Y-106380000D03*
X117160000Y-106380000D03*
X114620000Y-106380000D03*
X112080000Y-106380000D03*
X109540000Y-106380000D03*
X107000000Y-106380000D03*
X107000000Y-114000000D03*
X109540000Y-114000000D03*
X112080000Y-114000000D03*
X114620000Y-114000000D03*
X117160000Y-114000000D03*
X119700000Y-114000000D03*
X122240000Y-114000000D03*
X124780000Y-114000000D03*
D25*
X105760000Y-80000000D03*
X108300000Y-80000000D03*
X110840000Y-80000000D03*
X120750000Y-93080000D03*
X120750000Y-88000000D03*
X120750000Y-90540000D03*
X120750000Y-82920000D03*
X120750000Y-80380000D03*
D18*
X26020000Y-76500000D03*
X30520000Y-76500000D03*
X26020000Y-83000000D03*
X30520000Y-83000000D03*
D31*
X82540000Y-134080000D03*
X77460000Y-134080000D03*
X74920000Y-129000000D03*
X80000000Y-129000000D03*
X85080000Y-129000000D03*
D32*
X24000000Y-72160000D03*
X24000000Y-69620000D03*
X24000000Y-67080000D03*
D33*
X24000000Y-64540000D03*
D12*
X101920000Y-141000000D03*
X104460000Y-141000000D03*
X107000000Y-141000000D03*
D34*
X58000000Y-148000000D03*
X58000000Y-150540000D03*
D35*
X58000000Y-153080000D03*
D34*
X112650000Y-141000000D03*
X115190000Y-141000000D03*
D35*
X117730000Y-141000000D03*
D11*
X27920000Y-151000000D03*
X30460000Y-151000000D03*
X33000000Y-151000000D03*
X35540000Y-151000000D03*
X38080000Y-151000000D03*
X40620000Y-151000000D03*
X43160000Y-151000000D03*
X45700000Y-151000000D03*
X48240000Y-151000000D03*
D10*
X50780000Y-151000000D03*
D11*
X91430000Y-123000000D03*
X88890000Y-123000000D03*
X86350000Y-123000000D03*
X83810000Y-123000000D03*
X81270000Y-123000000D03*
X78730000Y-123000000D03*
X76190000Y-123000000D03*
X73650000Y-123000000D03*
X71110000Y-123000000D03*
D10*
X68570000Y-123000000D03*
D11*
X97000000Y-100140000D03*
X97000000Y-102680000D03*
X97000000Y-105220000D03*
X97000000Y-107760000D03*
X97000000Y-110300000D03*
X97000000Y-112840000D03*
X97000000Y-115380000D03*
X97000000Y-117920000D03*
X97000000Y-120460000D03*
D10*
X97000000Y-123000000D03*
X93970000Y-85000000D03*
D11*
X91430000Y-85000000D03*
X88890000Y-85000000D03*
X86350000Y-85000000D03*
X83810000Y-85000000D03*
X81270000Y-85000000D03*
X78730000Y-85000000D03*
X76190000Y-85000000D03*
X73650000Y-85000000D03*
X71110000Y-85000000D03*
D10*
X55920000Y-132000000D03*
D11*
X58460000Y-132000000D03*
X61000000Y-132000000D03*
X63540000Y-132000000D03*
X66080000Y-132000000D03*
X68620000Y-132000000D03*
X24000000Y-138700000D03*
X24000000Y-136160000D03*
X24000000Y-133620000D03*
X24000000Y-131080000D03*
X24000000Y-128540000D03*
D10*
X24000000Y-126000000D03*
X63000000Y-87000000D03*
D11*
X63000000Y-89540000D03*
X63000000Y-92080000D03*
X63000000Y-94620000D03*
X63000000Y-97160000D03*
X63000000Y-99700000D03*
X50780000Y-123000000D03*
X48240000Y-123000000D03*
X45700000Y-123000000D03*
X43160000Y-123000000D03*
X40620000Y-123000000D03*
X38080000Y-123000000D03*
X35540000Y-123000000D03*
D10*
X33000000Y-123000000D03*
D36*
X26000000Y-24000000D03*
X134000000Y-24000000D03*
X26000000Y-53000000D03*
X134000000Y-53000000D03*
D32*
X24500000Y-28340000D03*
X27040000Y-28340000D03*
X24500000Y-30880000D03*
X27040000Y-30880000D03*
X24500000Y-33420000D03*
X27040000Y-33420000D03*
X24500000Y-35960000D03*
X27040000Y-35960000D03*
X24500000Y-38500000D03*
X27040000Y-38500000D03*
X24500000Y-41040000D03*
X27040000Y-41040000D03*
X24500000Y-43580000D03*
X27040000Y-43580000D03*
X24500000Y-46120000D03*
D33*
X27040000Y-46120000D03*
M02*
